<svg t="1614743288898" class="icon" viewBox="0 0 1024 1024" version="1.1" xmlns="http://www.w3.org/2000/svg" p-id="5952" width="200" height="200"><path d="M192 0h448.1536L960 320v576c0 70.6944-57.3056 128-128 128H192C121.3056 1024 64 966.6944 64 896V128C64 57.3056 121.3056 0 192 0z" fill="#45B7EC" p-id="5953"></path><path d="M232.96 733.8496v-75.392h73.92v75.392h36.3904V552.384h-36.3904v78.016H232.96v-78.016h-36.4032v181.4656h36.4032z m214.7584 0V580.4288h51.84v-28.0448H360.2176v28.032h51.0976v153.4336h36.4032z m108.1728 0v-124.1344l0.7552-0.128 44.864 124.2624h24.6784l44.864-124.0064 0.7552 0.128v123.8784h36.3904V552.384h-47.488l-46.6048 133.7344h-0.7552l-46.1184-133.7344h-47.7312v181.4656h36.3904z m303.36 0v-27.9168h-81.2544V552.384h-36.3904v181.4656h117.6576z" fill="#FFFFFF" opacity=".9" p-id="5954"></path><path d="M281.8944 360.1664c5.632 2.3808 10.0864 1.9968 13.4016-1.152 3.328-3.1488 4.8128-8.384 4.48-15.7056a13.4144 13.4144 0 0 0-3.328-7.7824c-2.048-2.4704-5.5296-4.6336-10.4704-6.5024l-50.0224-19.6608c-2.8928-1.1904-4.352-2.2144-4.352-3.072 0-0.8448 1.4592-1.7792 4.352-2.7904l52.0704-20.6848c8.1664-2.7136 12.2496-8.4992 12.2496-17.3568 0-13.44-6.1184-17.7792-18.3808-13.0176l-81.1648 34.4576a21.2224 21.2224 0 0 0-9.7024 8.0384 21.632 21.632 0 0 0-0.128 22.848c2.1248 3.584 5.5808 6.3872 10.3424 8.4224l80.6528 33.9584z m49.536 59.2128c3.904 1.3568 7.8592 1.5744 11.8528 0.64 4.0064-0.9344 6.7712-3.6224 8.2944-8.0384l68.928-210.8416c1.7024-4.9408 1.4848-8.8448-0.64-11.7376a18.3552 18.3552 0 0 0-9.0624-6.3872c-4.9408-1.7024-9.2288-1.92-12.8896-0.64-3.6608 1.28-6.2592 4.3904-7.7824 9.3184l-68.928 211.3536a9.9456 9.9456 0 0 0-0.384 5.6064 14.016 14.016 0 0 0 6.016 8.4352c1.5232 1.024 3.0464 1.792 4.5824 2.2912z m114.0864-64.064c2.8928 6.464 8.256 8.0768 16.0768 4.8512l80.6656-33.9584c4.7616-2.048 8.2048-4.8512 10.3296-8.4224 2.1376-3.5712 3.2-7.3088 3.2-11.2256 0-4.096-1.0624-7.9104-3.2-11.4944-2.1248-3.5712-5.4016-6.2848-9.8176-8.1664l-81.1776-34.4576c-3.904-1.7024-7.1808-2.048-9.8176-1.024a10.9312 10.9312 0 0 0-6.016 5.888 32 32 0 0 0-2.0352 11.4688c0 6.6432 3.9168 11.328 11.7504 14.0416l52.0704 20.6848c2.8928 1.1904 4.3392 2.1248 4.3392 2.8032 0 0.6784-1.4464 1.7024-4.352 3.072l-50.0224 19.648c-4.928 1.8688-8.4224 4.032-10.4576 6.5024-2.048 2.4704-3.1488 5.0688-3.328 7.7824-0.1664 4.2624 0.4352 8.256 1.792 12.0064z" fill="#9BDFFF" opacity=".9" p-id="5955"></path><path d="M640 0l320 320H768c-70.6944 0-128-57.3056-128-128V0z" fill="#9BDFFF" p-id="5956"></path></svg>