         <svg
            t="1614326105758"
            class="icon"
            viewBox="0 0 1024 1024"
            version="1.1"
            xmlns="http://www.w3.org/2000/svg"
            p-id="11655"
            width="200"
            height="200"
          >
            <path
              d="M952.830699 896.018664a127.38409 127.38409 0 0 1-126.914825 127.981336H191.128447a127.576062 127.576062 0 0 1-127.128127-127.981336V127.981336a127.597392 127.597392 0 0 1 127.128127-127.981336h551.599559L959.869672 225.289812zM699.001049 63.990668v160.637907a30.992814 30.992814 0 0 0 31.142125 31.376758h159.336764z m190.478889 255.962672h-190.478889a63.713375 63.713375 0 0 1-63.564064-63.990668V63.990668H191.128447a63.734705 63.734705 0 0 0-63.564063 63.990668v767.888016a63.713375 63.713375 0 0 0 63.564063 63.990668h634.787427a63.862687 63.862687 0 0 0 63.564064-63.990668V319.95334z m-148.671652 426.24184H246.373724a32.699231 32.699231 0 0 1 0-63.990668h494.434562a32.699231 32.699231 0 0 1 0 64.054659z m0-165.757161H246.373724a32.699231 32.699231 0 0 1 0-63.990668h494.434562a32.699231 32.699231 0 0 1 0 64.054659z m-208.182974-165.75716H246.373724a31.995334 31.995334 0 0 1 0-62.732185h286.251588a31.995334 31.995334 0 0 1 0 62.796176z"
              p-id="11656"
            />
          </svg>