        <svg
            t="1614563801342"
            class="icon"
            viewBox="0 0 1024 1024"
            version="1.1"
            xmlns="http://www.w3.org/2000/svg"
            p-id="5432"
            width="200"
            height="200"
          >
            <path
              d="M921.6 409.6h87.771429v468.114286h-87.771429v117.028571a29.257143 29.257143 0 0 1-29.257143 29.257143H131.657143a29.257143 29.257143 0 0 1-29.257143-29.257143v-117.028571H14.628571V409.6h87.771429V29.257143a29.257143 29.257143 0 0 1 29.257143-29.257143h570.836114L921.6 248.802743V409.6z m-29.257143 0v-117.028571h-175.542857a58.514286 58.514286 0 0 1-58.514286-58.514286V29.257143H160.914286a29.257143 29.257143 0 0 0-29.257143 29.257143v351.085714h760.685714z m0 468.114286H131.657143v87.771428a29.257143 29.257143 0 0 0 29.257143 29.257143h702.171428a29.257143 29.257143 0 0 0 29.257143-29.257143v-87.771428zM687.542857 29.257143v204.8a29.257143 29.257143 0 0 0 29.257143 29.257143h175.542857l-204.8-234.057143zM258.691657 527.535543v24.956343h146.110172L248.685714 755.653486v24.1664h202.049829v-29.549715H288.270629l155.530971-197.778285v-24.956343H258.691657z m228.790857-0.4096v252.079543h31.305143v-252.079543h-31.305143zM568.32 526.628571v251.2896h29.549714v-101.756342h85.313829a74.752 74.752 0 0 0 0-149.533258h-114.863543z m28.964571 25.3952h81.159315a49.298286 49.298286 0 0 1 0 98.567315h-81.188572v-98.596572z"
              fill="#07B7E2"
              p-id="5433"
            />
          </svg>