<svg t="1614752065174" class="icon" viewBox="0 0 1024 1024" version="1.1" xmlns="http://www.w3.org/2000/svg" p-id="10642" width="200" height="200"><path d="M119.232877 458.896282a40.078278 40.078278 0 0 1-28.054795-68.133073L452.88454 28.054795c36.07045-36.07045 94.183953-37.072407 130.254403-1.001957l349.682975 349.682974a40.383875 40.383875 0 1 1-57.111546 57.111546L526.027397 83.162427c-4.007828-4.007828-12.023483-4.007828-17.033268 1.001957L147.287671 446.872798a40.078278 40.078278 0 0 1-28.054794 12.023484z" fill="" p-id="10643"></path><path d="M512 1024a40.078278 40.078278 0 0 1-40.078278-40.078278V58.113503a40.078278 40.078278 0 1 1 80.156556 0v925.808219a40.078278 40.078278 0 0 1-40.078278 40.078278z" fill="" p-id="10644"></path></svg>